<svg xmlns="http://www.w3.org/2000/svg" viewBox="0 0 275.04 78.21"><defs><style>.cls-1{fill:#fff;}</style></defs><title>trampoline_logo_white</title><g id="Capa_2" data-name="Capa 2"><g id="Capa_1-2" data-name="Capa 1"><path class="cls-1" d="M14.45,36.49h5.89v8.08H14.45V55.86C14.45,58,15.57,59,17.79,59a11.17,11.17,0,0,0,2.43-.3v7.65a10.89,10.89,0,0,1-4.8.85,10.16,10.16,0,0,1-7.37-2.61A9.4,9.4,0,0,1,5.34,57.5V44.57H0V36.49H1.52A4.36,4.36,0,0,0,5,35.13a5.24,5.24,0,0,0,1.18-3.56V27.69h8.26Z"/><path class="cls-1" d="M41.81,45.6a12.85,12.85,0,0,0-2.92-.3,6.84,6.84,0,0,0-5.07,2c-1.32,1.34-2,3.4-2,6.2V66.67H22.62V36.49h8.92v4.07a6.75,6.75,0,0,1,3.34-3.34,10.68,10.68,0,0,1,4.5-1,8.77,8.77,0,0,1,2.43.3Z"/><path class="cls-1" d="M45.87,52.19a11.71,11.71,0,0,1,6.44-2.94l7.1-1.1c1.46-.2,2.19-.89,2.19-2.06a2.88,2.88,0,0,0-1.18-2.34,6,6,0,0,0-6.93.36A4.63,4.63,0,0,0,52,47.24L44,45.6a10.41,10.41,0,0,1,3.73-6.89q3.44-3.14,9.51-3.13,6.85,0,10.11,3.28a11.44,11.44,0,0,1,3.25,8.38V62A24.78,24.78,0,0,0,71,66.67H62.63a14.91,14.91,0,0,1-.3-3.4q-2.61,4.26-8.5,4.25a10.56,10.56,0,0,1-7.62-2.7,8.62,8.62,0,0,1-2.83-6.47A8.05,8.05,0,0,1,45.87,52.19ZM60,59.45q1.57-1.39,1.58-4.62V53.5l-5.71.91c-2.26.36-3.4,1.47-3.4,3.34a3,3,0,0,0,.88,2.18,3.6,3.6,0,0,0,2.7.91A5.74,5.74,0,0,0,60,59.45Z"/><path class="cls-1" d="M73.45,66.67V36.49h8.8V40a7.91,7.91,0,0,1,3.61-3.15,11.58,11.58,0,0,1,5.07-1.22q6.51,0,8.93,4.74a10.69,10.69,0,0,1,9.35-4.74,11.47,11.47,0,0,1,8,2.89c2.14,1.92,3.22,4.8,3.22,8.65V66.67h-8.93V49.18a5.47,5.47,0,0,0-1.21-3.67,4.46,4.46,0,0,0-3.59-1.43A4.67,4.67,0,0,0,103,45.6a5.34,5.34,0,0,0-1.34,3.65V66.67H92.51V49.18a5.38,5.38,0,0,0-1.24-3.67,4.55,4.55,0,0,0-3.61-1.43A4.62,4.62,0,0,0,84,45.6a5.41,5.41,0,0,0-1.33,3.71V66.67Z"/><path class="cls-1" d="M123.24,78.21V36.49h8.93v3.1a8,8,0,0,1,3.43-2.7A12.66,12.66,0,0,1,141,35.76a12.81,12.81,0,0,1,10.23,4.41q3.79,4.39,3.79,11.32a16.34,16.34,0,0,1-4,11.39,13.38,13.38,0,0,1-10.36,4.46c-3.8,0-6.54-1-8.2-3v13.9ZM144,46a6.66,6.66,0,0,0-4.89-2,6.58,6.58,0,0,0-4.82,2,7.37,7.37,0,0,0-2,5.52,7.51,7.51,0,0,0,2,5.56,6.52,6.52,0,0,0,4.82,2,6.6,6.6,0,0,0,4.89-2,7.51,7.51,0,0,0,2-5.56A7.37,7.37,0,0,0,144,46Z"/><path class="cls-1" d="M183.88,40.08a15.38,15.38,0,0,1,4.58,11.47,16,16,0,1,1-32.06,0A15.36,15.36,0,0,1,161,40.11a16.74,16.74,0,0,1,22.87,0Zm-6.62,17.06a7.53,7.53,0,0,0,2-5.59,7.38,7.38,0,0,0-2-5.55,7,7,0,0,0-9.63,0,7.34,7.34,0,0,0-2,5.52,7.48,7.48,0,0,0,2,5.56,6.91,6.91,0,0,0,9.63,0Z"/><path class="cls-1" d="M190.49,66.67v-44h9.23v44Z"/><path class="cls-1" d="M203.24,1.58A5.13,5.13,0,0,1,207,0a5.32,5.32,0,0,1,3.86,1.58,5.17,5.17,0,0,1,1.61,3.82,5.17,5.17,0,0,1-1.61,3.83A5.32,5.32,0,0,1,207,10.81a5.13,5.13,0,0,1-3.76-1.58,5.18,5.18,0,0,1-1.58-3.83A5.18,5.18,0,0,1,203.24,1.58Zm-.79,65.09V36.49h9.23V66.67Z"/><path class="cls-1" d="M223.57,66.67h-9.23V36.49h8.93V40a7.74,7.74,0,0,1,3.55-3.12,11.42,11.42,0,0,1,4.89-1.13c3.6,0,6.34,1.13,8.2,3.37a13.15,13.15,0,0,1,2.79,8.66V66.67h-9.23V49.31a5.57,5.57,0,0,0-1.24-3.8,4.63,4.63,0,0,0-3.68-1.43,4.68,4.68,0,0,0-3.61,1.49,5.4,5.4,0,0,0-1.37,3.8Z"/><path class="cls-1" d="M274.5,58a12.55,12.55,0,0,1-4.8,6.89,14.87,14.87,0,0,1-9.11,2.7,15.53,15.53,0,0,1-11.14-4.37q-4.59-4.37-4.59-11.72A15.44,15.44,0,0,1,249.33,40a14.51,14.51,0,0,1,10.59-4.44q7.05,0,11.09,4.1t4,11.39a12.72,12.72,0,0,1-.18,2.85h-21A5.56,5.56,0,0,0,256,58.08a7.16,7.16,0,0,0,4.73,1.67c3.12,0,5.14-1.31,6.08-4Zm-8.38-10a5.42,5.42,0,0,0-1.61-3.58,6,6,0,0,0-4.46-1.52,5.77,5.77,0,0,0-4.26,1.58A5.69,5.69,0,0,0,254,48Z"/></g></g></svg>